STARTFONT 2.1 
COMMENT =========================================================================
COMMENT Created with Raster Font Editor v0.14, �2005-2013 CyLog Software
COMMENT =========================================================================
FONT lee-sans
SIZE 8 96 96
FONTBOUNDINGBOX 11 11 0 -1
STARTPROPERTIES 15
FONTNAME_REGISTRY ""
FOUNDRY ""
FAMILY_NAME "Lee Sans"
WEIGHT_NAME "Normal"
SLANT "R"
SETWIDTH_NAME "Normal"
ADD_STYLE_NAME "Regular"
PIXEL_SIZE 11
CHARSET_REGISTRY "ISO8859"
CHARSET_ENCODING "1"
FONT_ASCENT 10
FONT_DESCENT 1
DEFAULT_CHAR 64
COPYRIGHT "Converted from BMP"
FACE_NAME "test.bmp"
ENDPROPERTIES
CHARS 96
STARTCHAR 0
ENCODING 32
SWIDTH 11000 0
DWIDTH 11 0
BBX 11 11 0 -1
BITMAP
0000
0000
0000
0000
0000
0000
0000
0000
0000
0000
0000
ENDCHAR
STARTCHAR 1
ENCODING 33
SWIDTH 11000 0
DWIDTH 11 0
BBX 11 11 0 -1
BITMAP
8080
8080
8080
0080
0000
0000
0000
0000
0000
0000
0000
ENDCHAR
STARTCHAR 2
ENCODING 34
SWIDTH 11000 0
DWIDTH 11 0
BBX 11 11 0 -1
BITMAP
A0A0
0000
0000
0000
0000
0000
0000
0000
0000
0000
0000
ENDCHAR
STARTCHAR 3
ENCODING 35
SWIDTH 11000 0
DWIDTH 11 0
BBX 11 11 0 -1
BITMAP
2424
FF24
24FF
2424
0000
0000
0000
0000
0000
0000
0000
ENDCHAR
STARTCHAR 4
ENCODING 36
SWIDTH 11000 0
DWIDTH 11 0
BBX 11 11 0 -1
BITMAP
2070
A8A0
7028
A870
2000
0000
0000
0000
0000
0000
0000
ENDCHAR
STARTCHAR 5
ENCODING 37
SWIDTH 11000 0
DWIDTH 11 0
BBX 11 11 0 -1
BITMAP
6192
9468
1629
4986
0000
0000
0000
0000
0000
0000
0000
ENDCHAR
STARTCHAR 6
ENCODING 38
SWIDTH 11000 0
DWIDTH 11 0
BBX 11 11 0 -1
BITMAP
3048
4870
8A8A
847A
0000
0000
0000
0000
0000
0000
0000
ENDCHAR
STARTCHAR 7
ENCODING 39
SWIDTH 11000 0
DWIDTH 11 0
BBX 11 11 0 -1
BITMAP
8080
0000
0000
0000
0000
0000
0000
0000
0000
0000
0000
ENDCHAR
STARTCHAR 8
ENCODING 40
SWIDTH 11000 0
DWIDTH 11 0
BBX 11 11 0 -1
BITMAP
6080
8080
8080
8060
0000
0000
0000
0000
0000
0000
0000
ENDCHAR
STARTCHAR 9
ENCODING 41
SWIDTH 11000 0
DWIDTH 11 0
BBX 11 11 0 -1
BITMAP
C020
2020
2020
20C0
0000
0000
0000
0000
0000
0000
0000
ENDCHAR
STARTCHAR 10
ENCODING 42
SWIDTH 11000 0
DWIDTH 11 0
BBX 11 11 0 -1
BITMAP
0020
20F8
2050
0000
0000
0000
0000
0000
0000
0000
0000
ENDCHAR
STARTCHAR 11
ENCODING 43
SWIDTH 11000 0
DWIDTH 11 0
BBX 11 11 0 -1
BITMAP
0020
20F8
2020
0000
0000
0000
0000
0000
0000
0000
0000
ENDCHAR
STARTCHAR 12
ENCODING 44
SWIDTH 11000 0
DWIDTH 11 0
BBX 11 11 0 -1
BITMAP
0000
0000
0000
4040
8000
0000
0000
0000
0000
0000
0000
ENDCHAR
STARTCHAR 13
ENCODING 45
SWIDTH 11000 0
DWIDTH 11 0
BBX 11 11 0 -1
BITMAP
0000
0000
F800
0000
0000
0000
0000
0000
0000
0000
0000
ENDCHAR
STARTCHAR 14
ENCODING 46
SWIDTH 11000 0
DWIDTH 11 0
BBX 11 11 0 -1
BITMAP
0000
0000
0000
0080
0000
0000
0000
0000
0000
0000
0000
ENDCHAR
STARTCHAR 15
ENCODING 47
SWIDTH 11000 0
DWIDTH 11 0
BBX 11 11 0 -1
BITMAP
1010
2020
4040
8080
0000
0000
0000
0000
0000
0000
0000
ENDCHAR
STARTCHAR 16
ENCODING 48
SWIDTH 11000 0
DWIDTH 11 0
BBX 11 11 0 -1
BITMAP
7088
8898
A8C8
8870
0000
0000
0000
0000
0000
0000
0000
ENDCHAR
STARTCHAR 17
ENCODING 49
SWIDTH 11000 0
DWIDTH 11 0
BBX 11 11 0 -1
BITMAP
2060
A020
2020
2020
0000
0000
0000
0000
0000
0000
0000
ENDCHAR
STARTCHAR 18
ENCODING 50
SWIDTH 11000 0
DWIDTH 11 0
BBX 11 11 0 -1
BITMAP
7088
0810
2040
80F8
0000
0000
0000
0000
0000
0000
0000
ENDCHAR
STARTCHAR 19
ENCODING 51
SWIDTH 11000 0
DWIDTH 11 0
BBX 11 11 0 -1
BITMAP
7088
0870
0808
8870
0000
0000
0000
0000
0000
0000
0000
ENDCHAR
STARTCHAR 20
ENCODING 52
SWIDTH 11000 0
DWIDTH 11 0
BBX 11 11 0 -1
BITMAP
1828
4888
FC08
0808
0000
0000
0000
0000
0000
0000
0000
ENDCHAR
STARTCHAR 21
ENCODING 53
SWIDTH 11000 0
DWIDTH 11 0
BBX 11 11 0 -1
BITMAP
F880
80F0
0808
8870
0000
0000
0000
0000
0000
0000
0000
ENDCHAR
STARTCHAR 22
ENCODING 54
SWIDTH 11000 0
DWIDTH 11 0
BBX 11 11 0 -1
BITMAP
7088
80F0
8888
8870
0000
0000
0000
0000
0000
0000
0000
ENDCHAR
STARTCHAR 23
ENCODING 55
SWIDTH 11000 0
DWIDTH 11 0
BBX 11 11 0 -1
BITMAP
FC04
0408
1020
2020
0000
0000
0000
0000
0000
0000
0000
ENDCHAR
STARTCHAR 24
ENCODING 56
SWIDTH 11000 0
DWIDTH 11 0
BBX 11 11 0 -1
BITMAP
7088
8870
8888
8870
0000
0000
0000
0000
0000
0000
0000
ENDCHAR
STARTCHAR 25
ENCODING 57
SWIDTH 11000 0
DWIDTH 11 0
BBX 11 11 0 -1
BITMAP
7088
8888
7808
8870
0000
0000
0000
0000
0000
0000
0000
ENDCHAR
STARTCHAR 26
ENCODING 58
SWIDTH 11000 0
DWIDTH 11 0
BBX 11 11 0 -1
BITMAP
0000
8000
0000
8000
0000
0000
0000
0000
0000
0000
0000
ENDCHAR
STARTCHAR 27
ENCODING 59
SWIDTH 11000 0
DWIDTH 11 0
BBX 11 11 0 -1
BITMAP
0000
4000
0000
4080
0000
0000
0000
0000
0000
0000
0000
ENDCHAR
STARTCHAR 28
ENCODING 60
SWIDTH 11000 0
DWIDTH 11 0
BBX 11 11 0 -1
BITMAP
1020
4080
8040
2010
0000
0000
0000
0000
0000
0000
0000
ENDCHAR
STARTCHAR 29
ENCODING 61
SWIDTH 11000 0
DWIDTH 11 0
BBX 11 11 0 -1
BITMAP
0000
F800
00F8
0000
0000
0000
0000
0000
0000
0000
0000
ENDCHAR
STARTCHAR 30
ENCODING 62
SWIDTH 11000 0
DWIDTH 11 0
BBX 11 11 0 -1
BITMAP
8040
2010
1020
4080
0000
0000
0000
0000
0000
0000
0000
ENDCHAR
STARTCHAR 31
ENCODING 63
SWIDTH 11000 0
DWIDTH 11 0
BBX 11 11 0 -1
BITMAP
7088
0810
2020
0020
0000
0000
0000
0000
0000
0000
0000
ENDCHAR
STARTCHAR 32
ENCODING 64
SWIDTH 11000 0
DWIDTH 11 0
BBX 11 11 0 -1
BITMAP
3C42
99A5
A59F
403E
0000
0000
0000
0000
0000
0000
0000
ENDCHAR
STARTCHAR 33
ENCODING 65
SWIDTH 11000 0
DWIDTH 11 0
BBX 11 11 0 -1
BITMAP
1010
2828
447C
8282
0000
0000
0000
0000
0000
0000
0000
ENDCHAR
STARTCHAR 34
ENCODING 66
SWIDTH 11000 0
DWIDTH 11 0
BBX 11 11 0 -1
BITMAP
F088
88F0
8888
88F0
0000
0000
0000
0000
0000
0000
0000
ENDCHAR
STARTCHAR 35
ENCODING 67
SWIDTH 11000 0
DWIDTH 11 0
BBX 11 11 0 -1
BITMAP
3844
8080
8080
4438
0000
0000
0000
0000
0000
0000
0000
ENDCHAR
STARTCHAR 36
ENCODING 68
SWIDTH 11000 0
DWIDTH 11 0
BBX 11 11 0 -1
BITMAP
F088
8484
8484
88F0
0000
0000
0000
0000
0000
0000
0000
ENDCHAR
STARTCHAR 37
ENCODING 69
SWIDTH 11000 0
DWIDTH 11 0
BBX 11 11 0 -1
BITMAP
FC80
80F8
8080
80FC
0000
0000
0000
0000
0000
0000
0000
ENDCHAR
STARTCHAR 38
ENCODING 70
SWIDTH 11000 0
DWIDTH 11 0
BBX 11 11 0 -1
BITMAP
FC80
80F8
8080
8080
0000
0000
0000
0000
0000
0000
0000
ENDCHAR
STARTCHAR 39
ENCODING 71
SWIDTH 11000 0
DWIDTH 11 0
BBX 11 11 0 -1
BITMAP
3844
8080
9C84
4438
0000
0000
0000
0000
0000
0000
0000
ENDCHAR
STARTCHAR 40
ENCODING 72
SWIDTH 11000 0
DWIDTH 11 0
BBX 11 11 0 -1
BITMAP
8484
84FC
8484
8484
0000
0000
0000
0000
0000
0000
0000
ENDCHAR
STARTCHAR 41
ENCODING 73
SWIDTH 11000 0
DWIDTH 11 0
BBX 11 11 0 -1
BITMAP
8080
8080
8080
8080
0000
0000
0000
0000
0000
0000
0000
ENDCHAR
STARTCHAR 42
ENCODING 74
SWIDTH 11000 0
DWIDTH 11 0
BBX 11 11 0 -1
BITMAP
1010
1010
1010
9060
0000
0000
0000
0000
0000
0000
0000
ENDCHAR
STARTCHAR 43
ENCODING 75
SWIDTH 11000 0
DWIDTH 11 0
BBX 11 11 0 -1
BITMAP
8488
90E0
9088
8484
0000
0000
0000
0000
0000
0000
0000
ENDCHAR
STARTCHAR 44
ENCODING 76
SWIDTH 11000 0
DWIDTH 11 0
BBX 11 11 0 -1
BITMAP
8080
8080
8080
80F8
0000
0000
0000
0000
0000
0000
0000
ENDCHAR
STARTCHAR 45
ENCODING 77
SWIDTH 11000 0
DWIDTH 11 0
BBX 11 11 0 -1
BITMAP
82C6
AA92
9282
8282
0000
0000
0000
0000
0000
0000
0000
ENDCHAR
STARTCHAR 46
ENCODING 78
SWIDTH 11000 0
DWIDTH 11 0
BBX 11 11 0 -1
BITMAP
82C2
A292
8A86
8282
0000
0000
0000
0000
0000
0000
0000
ENDCHAR
STARTCHAR 47
ENCODING 79
SWIDTH 11000 0
DWIDTH 11 0
BBX 11 11 0 -1
BITMAP
3844
8282
8282
4438
0000
0000
0000
0000
0000
0000
0000
ENDCHAR
STARTCHAR 48
ENCODING 80
SWIDTH 11000 0
DWIDTH 11 0
BBX 11 11 0 -1
BITMAP
F884
8484
F880
8080
0000
0000
0000
0000
0000
0000
0000
ENDCHAR
STARTCHAR 49
ENCODING 81
SWIDTH 11000 0
DWIDTH 11 0
BBX 11 11 0 -1
BITMAP
3844
8282
928A
443A
0000
0000
0000
0000
0000
0000
0000
ENDCHAR
STARTCHAR 50
ENCODING 82
SWIDTH 11000 0
DWIDTH 11 0
BBX 11 11 0 -1
BITMAP
F884
84F8
9088
8484
0000
0000
0000
0000
0000
0000
0000
ENDCHAR
STARTCHAR 51
ENCODING 83
SWIDTH 11000 0
DWIDTH 11 0
BBX 11 11 0 -1
BITMAP
7884
8078
0404
8478
0000
0000
0000
0000
0000
0000
0000
ENDCHAR
STARTCHAR 52
ENCODING 84
SWIDTH 11000 0
DWIDTH 11 0
BBX 11 11 0 -1
BITMAP
FE10
1010
1010
1010
0000
0000
0000
0000
0000
0000
0000
ENDCHAR
STARTCHAR 53
ENCODING 85
SWIDTH 11000 0
DWIDTH 11 0
BBX 11 11 0 -1
BITMAP
8282
8282
8282
4438
0000
0000
0000
0000
0000
0000
0000
ENDCHAR
STARTCHAR 54
ENCODING 86
SWIDTH 11000 0
DWIDTH 11 0
BBX 11 11 0 -1
BITMAP
8282
4444
2828
1010
0000
0000
0000
0000
0000
0000
0000
ENDCHAR
STARTCHAR 55
ENCODING 87
SWIDTH 11000 0
DWIDTH 11 0
BBX 11 11 0 -1
BITMAP
8080
4444
2A2A
1111
0000
0020
2040
4080
8000
0000
0000
ENDCHAR
STARTCHAR 56
ENCODING 88
SWIDTH 11000 0
DWIDTH 11 0
BBX 11 11 0 -1
BITMAP
8244
2810
2844
8282
0000
0000
0000
0000
0000
0000
0000
ENDCHAR
STARTCHAR 57
ENCODING 89
SWIDTH 11000 0
DWIDTH 11 0
BBX 11 11 0 -1
BITMAP
8244
2810
1010
1010
0000
0000
0000
0000
0000
0000
0000
ENDCHAR
STARTCHAR 58
ENCODING 90
SWIDTH 11000 0
DWIDTH 11 0
BBX 11 11 0 -1
BITMAP
FC04
0810
2040
80FC
0000
0000
0000
0000
0000
0000
0000
ENDCHAR
STARTCHAR 59
ENCODING 91
SWIDTH 11000 0
DWIDTH 11 0
BBX 11 11 0 -1
BITMAP
E080
8080
8080
80E0
0000
0000
0000
0000
0000
0000
0000
ENDCHAR
STARTCHAR 60
ENCODING 92
SWIDTH 11000 0
DWIDTH 11 0
BBX 11 11 0 -1
BITMAP
8080
4040
2020
1010
0000
0000
0000
0000
0000
0000
0000
ENDCHAR
STARTCHAR 61
ENCODING 93
SWIDTH 11000 0
DWIDTH 11 0
BBX 11 11 0 -1
BITMAP
E020
2020
2020
20E0
0000
0000
0000
0000
0000
0000
0000
ENDCHAR
STARTCHAR 62
ENCODING 94
SWIDTH 11000 0
DWIDTH 11 0
BBX 11 11 0 -1
BITMAP
2050
8800
0000
0000
0000
0000
0000
0000
0000
0000
0000
ENDCHAR
STARTCHAR 63
ENCODING 95
SWIDTH 11000 0
DWIDTH 11 0
BBX 11 11 0 -1
BITMAP
0000
0000
0000
00F8
0000
0000
0000
0000
0000
0000
0000
ENDCHAR
STARTCHAR 64
ENCODING 96
SWIDTH 11000 0
DWIDTH 11 0
BBX 11 11 0 -1
BITMAP
8040
0000
0000
0000
0000
0000
0000
0000
0000
0000
0000
ENDCHAR
STARTCHAR 65
ENCODING 97
SWIDTH 11000 0
DWIDTH 11 0
BBX 11 11 0 -1
BITMAP
0000
0070
0878
8874
0000
0000
0000
0000
0000
0000
0000
ENDCHAR
STARTCHAR 66
ENCODING 98
SWIDTH 11000 0
DWIDTH 11 0
BBX 11 11 0 -1
BITMAP
8080
80F0
8888
88F0
0000
0000
0000
0000
0000
0000
0000
ENDCHAR
STARTCHAR 67
ENCODING 99
SWIDTH 11000 0
DWIDTH 11 0
BBX 11 11 0 -1
BITMAP
0000
0070
8880
8870
0000
0000
0000
0000
0000
0000
0000
ENDCHAR
STARTCHAR 68
ENCODING 100
SWIDTH 11000 0
DWIDTH 11 0
BBX 11 11 0 -1
BITMAP
0808
0878
8888
8878
0000
0000
0000
0000
0000
0000
0000
ENDCHAR
STARTCHAR 69
ENCODING 101
SWIDTH 11000 0
DWIDTH 11 0
BBX 11 11 0 -1
BITMAP
0000
0070
88F8
8078
0000
0000
0000
0000
0000
0000
0000
ENDCHAR
STARTCHAR 70
ENCODING 102
SWIDTH 11000 0
DWIDTH 11 0
BBX 11 11 0 -1
BITMAP
3040
40F0
4040
4040
0000
0000
0000
0000
0000
0000
0000
ENDCHAR
STARTCHAR 71
ENCODING 103
SWIDTH 11000 0
DWIDTH 11 0
BBX 11 11 0 -1
BITMAP
0000
0070
8888
8878
0870
0000
0000
0000
0000
0000
0000
ENDCHAR
STARTCHAR 72
ENCODING 104
SWIDTH 11000 0
DWIDTH 11 0
BBX 11 11 0 -1
BITMAP
8080
80F0
8888
8888
0000
0000
0000
0000
0000
0000
0000
ENDCHAR
STARTCHAR 73
ENCODING 105
SWIDTH 11000 0
DWIDTH 11 0
BBX 11 11 0 -1
BITMAP
0080
0080
8080
8080
0000
0000
0000
0000
0000
0000
0000
ENDCHAR
STARTCHAR 74
ENCODING 106
SWIDTH 11000 0
DWIDTH 11 0
BBX 11 11 0 -1
BITMAP
0020
0020
2020
2020
C000
0000
0000
0000
0000
0000
0000
ENDCHAR
STARTCHAR 75
ENCODING 107
SWIDTH 11000 0
DWIDTH 11 0
BBX 11 11 0 -1
BITMAP
8080
8088
90E0
9088
0000
0000
0000
0000
0000
0000
0000
ENDCHAR
STARTCHAR 76
ENCODING 108
SWIDTH 11000 0
DWIDTH 11 0
BBX 11 11 0 -1
BITMAP
C040
4040
4040
4040
0000
0000
0000
0000
0000
0000
0000
ENDCHAR
STARTCHAR 77
ENCODING 109
SWIDTH 11000 0
DWIDTH 11 0
BBX 11 11 0 -1
BITMAP
0000
00FC
9292
9292
0000
0000
0000
0000
0000
0000
0000
ENDCHAR
STARTCHAR 78
ENCODING 110
SWIDTH 11000 0
DWIDTH 11 0
BBX 11 11 0 -1
BITMAP
0000
00F0
8888
8888
0000
0000
0000
0000
0000
0000
0000
ENDCHAR
STARTCHAR 79
ENCODING 111
SWIDTH 11000 0
DWIDTH 11 0
BBX 11 11 0 -1
BITMAP
0000
0070
8888
8870
0000
0000
0000
0000
0000
0000
0000
ENDCHAR
STARTCHAR 80
ENCODING 112
SWIDTH 11000 0
DWIDTH 11 0
BBX 11 11 0 -1
BITMAP
0000
00F0
8888
88F0
8080
0000
0000
0000
0000
0000
0000
ENDCHAR
STARTCHAR 81
ENCODING 113
SWIDTH 11000 0
DWIDTH 11 0
BBX 11 11 0 -1
BITMAP
0000
0078
8888
8878
0808
0000
0000
0000
0000
0000
0000
ENDCHAR
STARTCHAR 82
ENCODING 114
SWIDTH 11000 0
DWIDTH 11 0
BBX 11 11 0 -1
BITMAP
0000
00B0
C080
8080
0000
0000
0000
0000
0000
0000
0000
ENDCHAR
STARTCHAR 83
ENCODING 115
SWIDTH 11000 0
DWIDTH 11 0
BBX 11 11 0 -1
BITMAP
0000
0078
8070
08F0
0000
0000
0000
0000
0000
0000
0000
ENDCHAR
STARTCHAR 84
ENCODING 116
SWIDTH 11000 0
DWIDTH 11 0
BBX 11 11 0 -1
BITMAP
0040
40F8
4040
4038
0000
0000
0000
0000
0000
0000
0000
ENDCHAR
STARTCHAR 85
ENCODING 117
SWIDTH 11000 0
DWIDTH 11 0
BBX 11 11 0 -1
BITMAP
0000
0088
8888
8878
0000
0000
0000
0000
0000
0000
0000
ENDCHAR
STARTCHAR 86
ENCODING 118
SWIDTH 11000 0
DWIDTH 11 0
BBX 11 11 0 -1
BITMAP
0000
0088
8850
5020
0000
0000
0000
0000
0000
0000
0000
ENDCHAR
STARTCHAR 87
ENCODING 119
SWIDTH 11000 0
DWIDTH 11 0
BBX 11 11 0 -1
BITMAP
0000
0082
8254
5428
0000
0000
0000
0000
0000
0000
0000
ENDCHAR
STARTCHAR 88
ENCODING 120
SWIDTH 11000 0
DWIDTH 11 0
BBX 11 11 0 -1
BITMAP
0000
0088
5020
5088
0000
0000
0000
0000
0000
0000
0000
ENDCHAR
STARTCHAR 89
ENCODING 121
SWIDTH 11000 0
DWIDTH 11 0
BBX 11 11 0 -1
BITMAP
0000
0088
8888
8878
0870
0000
0000
0000
0000
0000
0000
ENDCHAR
STARTCHAR 90
ENCODING 122
SWIDTH 11000 0
DWIDTH 11 0
BBX 11 11 0 -1
BITMAP
0000
00F8
1020
40F8
0000
0000
0000
0000
0000
0000
0000
ENDCHAR
STARTCHAR 91
ENCODING 123
SWIDTH 11000 0
DWIDTH 11 0
BBX 11 11 0 -1
BITMAP
2040
4040
8040
4040
2000
0000
0000
0000
0000
0000
0000
ENDCHAR
STARTCHAR 92
ENCODING 124
SWIDTH 11000 0
DWIDTH 11 0
BBX 11 11 0 -1
BITMAP
8080
8080
8080
8080
0000
0000
0000
0000
0000
0000
0000
ENDCHAR
STARTCHAR 93
ENCODING 125
SWIDTH 11000 0
DWIDTH 11 0
BBX 11 11 0 -1
BITMAP
8040
4040
2040
4040
8000
0000
0000
0000
0000
0000
0000
ENDCHAR
STARTCHAR 94
ENCODING 126
SWIDTH 11000 0
DWIDTH 11 0
BBX 11 11 0 -1
BITMAP
0064
9800
0000
0000
0000
0000
0000
0000
0000
0000
0000
ENDCHAR
STARTCHAR 95
ENCODING 127
SWIDTH 11000 0
DWIDTH 11 0
BBX 11 11 0 -1
BITMAP
0000
0000
0000
0000
0000
0000
0000
0000
0000
0000
0000
ENDCHAR
ENDFONT
